<svg xmlns="http://www.w3.org/2000/svg" xmlns:xlink="http://www.w3.org/1999/xlink" width="1080" zoomAndPan="magnify" viewBox="0 0 810 809.999993" height="1080" preserveAspectRatio="xMidYMid meet" version="1.0"><defs><clipPath id="0dd403087a"><path d="M 7 174 L 594 174 L 594 683 L 7 683 Z M 7 174 " clip-rule="nonzero"/></clipPath><clipPath id="f7e6eb6d81"><path d="M -85.152344 105.367188 L 782.425781 -35.878906 L 903.179688 705.855469 L 35.601562 847.101562 Z M -85.152344 105.367188 " clip-rule="nonzero"/></clipPath><clipPath id="b69c74f3f2"><path d="M -85.152344 105.367188 L 782.425781 -35.878906 L 903.179688 705.855469 L 35.601562 847.101562 Z M -85.152344 105.367188 " clip-rule="nonzero"/></clipPath><clipPath id="272a9011e1"><path d="M 19 312 L 133 312 L 133 609 L 19 609 Z M 19 312 " clip-rule="nonzero"/></clipPath><clipPath id="cd2ae0c9a0"><path d="M -85.152344 105.367188 L 782.425781 -35.878906 L 903.179688 705.855469 L 35.601562 847.101562 Z M -85.152344 105.367188 " clip-rule="nonzero"/></clipPath><clipPath id="8155eeeeb7"><path d="M -85.152344 105.367188 L 782.425781 -35.878906 L 903.179688 705.855469 L 35.601562 847.101562 Z M -85.152344 105.367188 " clip-rule="nonzero"/></clipPath><clipPath id="22dafccf60"><path d="M 120 672 L 395 672 L 395 801 L 120 801 Z M 120 672 " clip-rule="nonzero"/></clipPath><clipPath id="8e9415f0b8"><path d="M -85.152344 105.367188 L 782.425781 -35.878906 L 903.179688 705.855469 L 35.601562 847.101562 Z M -85.152344 105.367188 " clip-rule="nonzero"/></clipPath><clipPath id="61b1ff10e4"><path d="M -85.152344 105.367188 L 782.425781 -35.878906 L 903.179688 705.855469 L 35.601562 847.101562 Z M -85.152344 105.367188 " clip-rule="nonzero"/></clipPath><clipPath id="81563a57bb"><path d="M 203 260 L 310 260 L 310 528 L 203 528 Z M 203 260 " clip-rule="nonzero"/></clipPath><clipPath id="bfdfec5aff"><path d="M -85.152344 105.367188 L 782.425781 -35.878906 L 903.179688 705.855469 L 35.601562 847.101562 Z M -85.152344 105.367188 " clip-rule="nonzero"/></clipPath><clipPath id="b5bb3bc03b"><path d="M -85.152344 105.367188 L 782.425781 -35.878906 L 903.179688 705.855469 L 35.601562 847.101562 Z M -85.152344 105.367188 " clip-rule="nonzero"/></clipPath><clipPath id="a8f3dc7603"><path d="M 337 541 L 599 541 L 599 644 L 337 644 Z M 337 541 " clip-rule="nonzero"/></clipPath><clipPath id="7abbdbf97a"><path d="M -85.152344 105.367188 L 782.425781 -35.878906 L 903.179688 705.855469 L 35.601562 847.101562 Z M -85.152344 105.367188 " clip-rule="nonzero"/></clipPath><clipPath id="d3a455e6d2"><path d="M -85.152344 105.367188 L 782.425781 -35.878906 L 903.179688 705.855469 L 35.601562 847.101562 Z M -85.152344 105.367188 " clip-rule="nonzero"/></clipPath><clipPath id="14f2a99f8f"><path d="M 348 126 L 433 126 L 433 352 L 348 352 Z M 348 126 " clip-rule="nonzero"/></clipPath><clipPath id="f63fa499f0"><path d="M -85.152344 105.367188 L 782.425781 -35.878906 L 903.179688 705.855469 L 35.601562 847.101562 Z M -85.152344 105.367188 " clip-rule="nonzero"/></clipPath><clipPath id="f8ca9ec231"><path d="M -85.152344 105.367188 L 782.425781 -35.878906 L 903.179688 705.855469 L 35.601562 847.101562 Z M -85.152344 105.367188 " clip-rule="nonzero"/></clipPath><clipPath id="371135383e"><path d="M 475 357 L 700 357 L 700 442 L 475 442 Z M 475 357 " clip-rule="nonzero"/></clipPath><clipPath id="0d881fe40d"><path d="M -85.152344 105.367188 L 782.425781 -35.878906 L 903.179688 705.855469 L 35.601562 847.101562 Z M -85.152344 105.367188 " clip-rule="nonzero"/></clipPath><clipPath id="babb3b3b8a"><path d="M -85.152344 105.367188 L 782.425781 -35.878906 L 903.179688 705.855469 L 35.601562 847.101562 Z M -85.152344 105.367188 " clip-rule="nonzero"/></clipPath><clipPath id="810e6c565f"><path d="M 468 11 L 534 11 L 534 216 L 468 216 Z M 468 11 " clip-rule="nonzero"/></clipPath><clipPath id="0a0c6e5cf7"><path d="M -85.152344 105.367188 L 782.425781 -35.878906 L 903.179688 705.855469 L 35.601562 847.101562 Z M -85.152344 105.367188 " clip-rule="nonzero"/></clipPath><clipPath id="0c813fb30c"><path d="M -85.152344 105.367188 L 782.425781 -35.878906 L 903.179688 705.855469 L 35.601562 847.101562 Z M -85.152344 105.367188 " clip-rule="nonzero"/></clipPath><clipPath id="51686dc287"><path d="M 557 222 L 761 222 L 761 296 L 557 296 Z M 557 222 " clip-rule="nonzero"/></clipPath><clipPath id="9cfb09acd7"><path d="M -85.152344 105.367188 L 782.425781 -35.878906 L 903.179688 705.855469 L 35.601562 847.101562 Z M -85.152344 105.367188 " clip-rule="nonzero"/></clipPath><clipPath id="ecc05c2b72"><path d="M -85.152344 105.367188 L 782.425781 -35.878906 L 903.179688 705.855469 L 35.601562 847.101562 Z M -85.152344 105.367188 " clip-rule="nonzero"/></clipPath><clipPath id="e5cf61b47d"><path d="M 604 51 L 797 51 L 797 171 L 604 171 Z M 604 51 " clip-rule="nonzero"/></clipPath><clipPath id="b7336b90ae"><path d="M -85.152344 105.367188 L 782.425781 -35.878906 L 903.179688 705.855469 L 35.601562 847.101562 Z M -85.152344 105.367188 " clip-rule="nonzero"/></clipPath><clipPath id="9a18f6bbde"><path d="M -85.152344 105.367188 L 782.425781 -35.878906 L 903.179688 705.855469 L 35.601562 847.101562 Z M -85.152344 105.367188 " clip-rule="nonzero"/></clipPath></defs><g clip-path="url(#0dd403087a)"><g clip-path="url(#f7e6eb6d81)"><g clip-path="url(#b69c74f3f2)"><path fill="#0699dc" d="M 577.804688 176.214844 C 580.769531 174.332031 583.382812 174.605469 585.652344 177.042969 L 589.050781 180.695312 L 591.304688 185.9375 C 592.808594 189.429688 593.371094 191.441406 592.988281 191.972656 C 592.609375 192.5 588.617188 195.253906 581.011719 200.230469 C 573.410156 205.207031 566.335938 210.566406 559.789062 216.304688 C 553.246094 222.046875 547.992188 227.105469 544.03125 231.492188 C 540.074219 235.875 536.492188 239.730469 533.296875 243.054688 C 530.097656 246.378906 523.042969 256.175781 512.136719 272.441406 C 501.230469 288.707031 494.707031 298.882812 492.566406 302.96875 C 490.429688 307.054688 487.90625 311.671875 485.007812 316.820312 C 482.105469 321.964844 479.277344 327.566406 476.523438 333.625 C 473.769531 339.683594 470.941406 345.285156 468.042969 350.429688 C 465.140625 355.578125 462.3125 361.179688 459.558594 367.234375 C 456.804688 373.292969 452.835938 380.480469 447.644531 388.804688 C 442.457031 397.128906 438.484375 404.320312 435.730469 410.375 C 432.980469 416.433594 428.816406 423.886719 423.246094 432.738281 C 417.675781 441.59375 413.441406 448.59375 410.539062 453.738281 C 407.636719 458.886719 404.589844 463.121094 401.390625 466.445312 C 398.191406 469.769531 391.5625 477.859375 381.503906 490.714844 C 371.441406 503.570312 363.976562 512.265625 359.105469 516.796875 C 354.234375 521.332031 350.582031 524.730469 348.144531 526.996094 C 345.710938 529.261719 342.890625 532.058594 339.695312 535.382812 C 336.496094 538.707031 333.296875 542.03125 330.101562 545.359375 C 326.902344 548.683594 317.011719 556.835938 300.425781 569.820312 C 283.84375 582.800781 269.167969 593.136719 256.394531 600.824219 C 243.625 608.511719 234.65625 613.710938 229.488281 616.421875 C 224.320312 619.132812 213.453125 624.175781 196.890625 631.546875 C 180.328125 638.914062 164.074219 645.300781 148.125 650.703125 C 132.179688 656.101562 114.335938 661.34375 94.59375 666.429688 C 74.855469 671.511719 55.917969 675.761719 37.777344 679.183594 C 19.636719 682.605469 10.117188 682.984375 9.214844 680.328125 L 7.867188 676.339844 L 7.4375 669.398438 C 7.152344 664.773438 23.289062 659.105469 55.851562 652.402344 C 88.417969 645.699219 115.328125 638.746094 136.59375 631.546875 C 157.859375 624.34375 177.226562 616.984375 194.699219 609.46875 C 212.171875 601.949219 226.839844 594.417969 238.699219 586.878906 C 250.5625 579.339844 260.292969 573.082031 267.894531 568.105469 C 275.5 563.128906 283.027344 557.695312 290.484375 551.808594 C 297.9375 545.917969 306.613281 538.898438 316.503906 530.746094 C 326.394531 522.589844 334.464844 514.734375 340.710938 507.171875 C 346.957031 499.613281 351.683594 494.167969 354.878906 490.84375 C 358.078125 487.519531 362.992188 481.8125 369.621094 473.722656 C 376.25 465.632812 380.632812 459.542969 382.773438 455.453125 C 384.914062 451.367188 391.625 440.925781 402.914062 424.132812 C 414.203125 407.335938 421.53125 394.925781 424.898438 386.898438 C 428.265625 378.875 431.019531 372.816406 433.160156 368.730469 C 435.296875 364.640625 437.746094 359.570312 440.496094 353.511719 C 443.25 347.453125 447.222656 340.265625 452.410156 331.941406 C 457.601562 323.617188 461.265625 317.414062 463.402344 313.324219 C 465.542969 309.238281 468.0625 304.621094 470.964844 299.476562 C 473.867188 294.328125 476.085938 289.292969 477.621094 284.371094 C 479.15625 279.445312 481.179688 276.078125 483.6875 274.265625 C 486.199219 272.457031 493.625 263.535156 505.972656 247.503906 C 518.320312 231.46875 526.929688 221.1875 531.800781 216.65625 C 536.671875 212.125 540.328125 208.726562 542.761719 206.457031 C 545.199219 204.191406 550.523438 199.585938 558.742188 192.640625 C 566.960938 185.691406 571.449219 181.691406 572.210938 180.632812 C 572.976562 179.570312 574.839844 178.101562 577.804688 176.214844 Z M 577.804688 176.214844 " fill-opacity="1" fill-rule="evenodd"/></g></g></g><g clip-path="url(#272a9011e1)"><g clip-path="url(#cd2ae0c9a0)"><g clip-path="url(#8155eeeeb7)"><path fill="#0699dc" d="M 70.785156 313.445312 L 73.40625 312.316406 L 78.152344 319.957031 C 81.320312 325.050781 85.464844 331.855469 90.589844 340.367188 C 95.71875 348.882812 101.890625 360.964844 109.113281 376.613281 C 116.335938 392.265625 120.847656 402.746094 122.648438 408.0625 C 124.445312 413.378906 126.671875 427.039062 129.320312 449.042969 C 131.964844 471.046875 132.65625 489.632812 131.382812 504.792969 C 130.113281 519.957031 128.324219 531.933594 126.015625 540.722656 C 123.707031 549.511719 120.5625 558.90625 116.578125 568.902344 C 112.597656 578.898438 108.585938 587.261719 104.539062 594 C 100.492188 600.734375 97.898438 604.894531 96.753906 606.484375 L 95.039062 608.867188 L 92.402344 584.054688 C 90.644531 567.515625 86.992188 530.71875 81.441406 473.664062 L 73.117188 388.082031 L 72.355469 409.238281 C 71.847656 423.34375 71.65625 453.757812 71.785156 500.476562 C 71.910156 547.195312 71.425781 575.785156 70.324219 586.246094 L 68.671875 601.941406 L 59.171875 586.660156 C 52.839844 576.472656 46.8125 565.304688 41.097656 553.148438 C 35.378906 540.992188 31.691406 532.710938 30.039062 528.304688 C 28.386719 523.898438 26.089844 509.785156 23.144531 485.957031 C 20.203125 462.132812 19.28125 444.988281 20.382812 434.527344 C 21.484375 424.066406 23.1875 414.441406 25.496094 405.652344 C 27.804688 396.863281 31.257812 386.484375 35.851562 374.519531 C 40.449219 362.550781 46.484375 350.820312 53.960938 339.320312 C 61.4375 327.820312 65.675781 320.820312 66.667969 318.320312 C 67.664062 315.824219 69.035156 314.195312 70.785156 313.445312 Z M 70.785156 313.445312 " fill-opacity="1" fill-rule="evenodd"/></g></g></g><g clip-path="url(#22dafccf60)"><g clip-path="url(#8e9415f0b8)"><g clip-path="url(#61b1ff10e4)"><path fill="#0699dc" d="M 150.539062 674.144531 C 162.378906 672.21875 177.25 671.667969 195.144531 672.492188 C 213.042969 673.320312 227.898438 675.574219 239.71875 679.257812 C 251.535156 682.945312 259.488281 685.855469 263.574219 687.996094 C 267.664062 690.132812 271.75 692.273438 275.839844 694.410156 C 279.925781 696.550781 284.542969 699.070312 289.691406 701.972656 C 294.835938 704.871094 298.359375 706.402344 300.253906 706.5625 C 302.148438 706.71875 303.246094 707.710938 303.542969 709.53125 C 303.835938 711.351562 305.464844 712.726562 308.417969 713.644531 C 311.371094 714.566406 319.996094 720.171875 334.292969 730.464844 C 348.589844 740.757812 356.113281 746.777344 356.867188 748.527344 C 357.617188 750.273438 358.90625 750.996094 360.726562 750.703125 C 362.546875 750.40625 364.363281 751.511719 366.175781 754.019531 C 367.984375 756.53125 371.15625 760.222656 375.6875 765.089844 C 380.222656 769.960938 384.152344 773.996094 387.476562 777.195312 C 390.800781 780.394531 392.839844 782.867188 393.589844 784.613281 L 394.71875 787.234375 L 390.730469 788.582031 C 388.074219 789.484375 371.644531 791.925781 341.441406 795.90625 C 311.238281 799.890625 290.453125 801.402344 279.078125 800.449219 C 267.707031 799.5 254.667969 796.945312 239.972656 792.796875 C 225.273438 788.644531 214.894531 785.191406 208.835938 782.441406 C 202.78125 779.6875 196.121094 776.097656 188.855469 771.671875 C 181.589844 767.246094 177.011719 764.953125 175.113281 764.792969 C 173.21875 764.636719 172.121094 763.644531 171.828125 761.824219 C 171.53125 760.003906 170.472656 759.238281 168.648438 759.535156 C 166.828125 759.832031 165.769531 759.070312 165.472656 757.25 C 165.175781 755.429688 163.816406 754.246094 161.390625 753.707031 C 158.964844 753.167969 156.089844 751.296875 152.765625 748.101562 C 149.441406 744.902344 145.054688 740.941406 139.613281 736.21875 C 134.167969 731.496094 129.636719 726.625 126.015625 721.605469 C 122.394531 716.589844 120.625 712.902344 120.710938 710.550781 C 120.792969 708.203125 125.230469 708.179688 134.019531 710.488281 C 142.808594 712.796875 160.917969 717.792969 188.347656 725.480469 C 215.773438 733.167969 234.410156 738.546875 244.261719 741.617188 C 254.109375 744.6875 266.382812 748.300781 281.082031 752.449219 C 295.777344 756.601562 305.554688 759.214844 310.402344 760.296875 C 315.253906 761.375 318.589844 761.769531 320.410156 761.472656 L 323.144531 761.027344 L 315.421875 756.675781 C 310.277344 753.773438 298.765625 749.105469 280.890625 742.664062 C 263.015625 736.226562 252.03125 731.941406 247.945312 729.800781 C 243.859375 727.660156 232.875 723.375 215 716.9375 C 197.125 710.496094 186.671875 706.589844 183.644531 705.214844 C 180.617188 703.835938 171.148438 700.238281 155.242188 694.414062 C 139.335938 688.589844 130.324219 684.914062 128.207031 683.390625 L 125.03125 681.105469 L 128.90625 679.070312 C 131.488281 677.714844 138.703125 676.074219 150.539062 674.144531 Z M 150.539062 674.144531 " fill-opacity="1" fill-rule="evenodd"/></g></g></g><g clip-path="url(#81563a57bb)"><g clip-path="url(#bfdfec5aff)"><g clip-path="url(#b5bb3bc03b)"><path fill="#0699dc" d="M 233.757812 267.984375 L 236.0625 260.597656 L 241.859375 261.757812 C 245.726562 262.527344 249.054688 264.324219 251.851562 267.140625 C 254.648438 269.957031 261.023438 278.96875 270.976562 294.175781 C 280.929688 309.378906 288.460938 324.046875 293.566406 338.171875 C 298.667969 352.296875 302.417969 363.839844 304.8125 372.796875 C 307.203125 381.757812 308.59375 396.019531 308.972656 415.589844 C 309.355469 435.15625 308.539062 450.246094 306.527344 460.855469 C 304.515625 471.46875 300.597656 484.726562 294.773438 500.628906 C 288.949219 516.535156 285.65625 525.015625 284.890625 526.074219 L 283.75 527.664062 L 265.480469 424.070312 L 247.214844 320.476562 L 248.707031 346.875 C 249.703125 364.476562 252.160156 396.792969 256.078125 443.832031 C 259.996094 490.867188 261.457031 515.636719 260.460938 518.132812 C 259.464844 520.632812 257.570312 520.472656 254.773438 517.65625 C 251.980469 514.839844 247.488281 508.796875 241.304688 499.519531 C 235.121094 490.242188 229.019531 478.617188 223.007812 464.640625 C 216.992188 450.660156 212.933594 440.105469 210.839844 432.96875 C 208.742188 425.828125 206.886719 414.445312 205.277344 398.816406 C 203.667969 383.1875 203.339844 369.6875 204.292969 358.3125 C 205.246094 346.941406 207.257812 336.332031 210.328125 326.484375 C 213.402344 316.632812 216.621094 307.699219 219.988281 299.671875 C 223.355469 291.644531 226.109375 285.585938 228.246094 281.5 C 230.386719 277.414062 232.222656 272.90625 233.757812 267.984375 Z M 233.757812 267.984375 " fill-opacity="1" fill-rule="evenodd"/></g></g></g><g clip-path="url(#a8f3dc7603)"><g clip-path="url(#7abbdbf97a)"><g clip-path="url(#d3a455e6d2)"><path fill="#0699dc" d="M 405.871094 545.640625 C 424.082031 542.675781 437.894531 541.363281 447.296875 541.703125 C 456.699219 542.039062 468.675781 543.828125 483.226562 547.070312 C 497.777344 550.308594 507.097656 553 511.183594 555.136719 C 515.273438 557.277344 520.34375 559.722656 526.402344 562.476562 C 532.460938 565.230469 538.0625 568.054688 543.207031 570.957031 C 548.355469 573.859375 552.972656 576.378906 557.058594 578.519531 C 561.148438 580.65625 569.015625 585.917969 580.664062 594.304688 L 598.136719 606.886719 L 585.367188 614.574219 C 576.851562 619.699219 565.53125 624.8125 551.40625 629.917969 C 537.277344 635.023438 519.210938 638.898438 497.207031 641.546875 C 475.199219 644.195312 457.453125 644.277344 443.960938 641.800781 C 430.46875 639.324219 419.328125 636.929688 410.539062 634.621094 C 401.75 632.3125 394.328125 629.785156 388.269531 627.03125 C 382.210938 624.277344 372.492188 617.679688 359.105469 607.238281 C 345.71875 596.800781 338.652344 590.707031 337.898438 588.957031 C 337.148438 587.210938 356.144531 587.625 394.894531 590.195312 C 433.640625 592.769531 458.246094 594.605469 468.710938 595.707031 C 479.171875 596.808594 490.925781 597.230469 503.972656 596.976562 L 523.542969 596.59375 L 521.953125 595.449219 C 520.894531 594.6875 490.386719 589.605469 430.425781 580.203125 C 370.46875 570.800781 340.222656 565.910156 339.695312 565.53125 L 338.898438 564.957031 L 341.410156 563.148438 C 343.082031 561.941406 349.691406 559.460938 361.234375 555.714844 C 372.777344 551.964844 387.65625 548.605469 405.871094 545.640625 Z M 405.871094 545.640625 " fill-opacity="1" fill-rule="evenodd"/></g></g></g><g clip-path="url(#14f2a99f8f)"><g clip-path="url(#f63fa499f0)"><g clip-path="url(#f8ca9ec231)"><path fill="#0699dc" d="M 367.617188 129.808594 L 369.90625 126.628906 L 378.070312 133.714844 C 383.515625 138.4375 389.929688 146.273438 397.324219 157.222656 C 404.714844 168.171875 410.59375 178.433594 414.953125 188.003906 C 419.316406 197.578125 422.546875 205.929688 424.644531 213.070312 C 426.742188 220.207031 428.890625 233.410156 431.09375 252.683594 C 433.296875 271.953125 433.308594 289.246094 431.125 304.558594 C 428.945312 319.871094 427.121094 330.214844 425.660156 335.59375 C 424.199219 340.976562 422.59375 344.039062 420.847656 344.792969 C 419.101562 345.542969 413.085938 321.515625 402.804688 272.710938 C 392.519531 223.90625 386.554688 197.300781 384.902344 192.898438 L 382.421875 186.289062 L 384.617188 208.367188 C 386.078125 223.085938 389.160156 250.628906 393.859375 290.996094 L 400.914062 351.542969 L 397.515625 347.890625 C 395.246094 345.453125 390.34375 338.308594 382.804688 326.449219 C 375.265625 314.585938 369.164062 302.960938 364.503906 291.566406 C 359.847656 280.171875 356.171875 269.085938 353.480469 258.308594 C 350.792969 247.527344 349.171875 234.703125 348.621094 219.835938 C 348.070312 204.96875 348.726562 191.777344 350.589844 180.253906 C 352.453125 168.734375 355.378906 157.976562 359.359375 147.980469 C 363.339844 137.980469 366.09375 131.925781 367.617188 129.808594 Z M 367.617188 129.808594 " fill-opacity="1" fill-rule="evenodd"/></g></g></g><g clip-path="url(#371135383e)"><g clip-path="url(#0d881fe40d)"><g clip-path="url(#babb3b3b8a)"><path fill="#0699dc" d="M 526.019531 362.023438 C 537.710938 359.1875 549.625 357.714844 561.761719 357.609375 C 573.894531 357.5 585.726562 358.378906 597.246094 360.242188 C 608.769531 362.105469 621.496094 365.644531 635.433594 370.851562 C 649.371094 376.0625 659.441406 380.5 665.644531 384.164062 C 671.851562 387.828125 676.996094 390.726562 681.085938 392.867188 C 685.171875 395.003906 689.335938 397.601562 693.570312 400.648438 L 699.925781 405.222656 L 689.664062 411.101562 C 682.824219 415.019531 672.792969 419.457031 659.578125 424.414062 C 646.363281 429.367188 633.910156 433.265625 622.21875 436.101562 C 610.527344 438.941406 596.792969 440.710938 581.011719 441.410156 C 565.234375 442.109375 550.789062 440.953125 537.679688 437.949219 C 524.570312 434.941406 515.441406 431.988281 510.292969 429.085938 C 505.148438 426.183594 502.308594 424.542969 501.78125 424.160156 C 501.25 423.78125 500.039062 423.511719 498.144531 423.351562 C 496.246094 423.191406 494.394531 421.859375 492.582031 419.347656 C 490.773438 416.839844 487.484375 413.867188 482.71875 410.4375 C 477.953125 407.007812 480.652344 404.933594 490.820312 404.210938 C 500.984375 403.492188 522.90625 403.195312 556.582031 403.320312 C 590.257812 403.445312 610.738281 402.917969 618.023438 401.730469 L 628.953125 399.953125 L 621.675781 398.332031 C 616.828125 397.253906 592.640625 395.113281 549.117188 391.917969 C 505.59375 388.71875 482.390625 386.886719 479.511719 386.421875 L 475.191406 385.722656 L 478.84375 382.324219 C 481.277344 380.058594 486.828125 376.816406 495.488281 372.601562 C 504.152344 368.386719 514.328125 364.863281 526.019531 362.023438 Z M 526.019531 362.023438 " fill-opacity="1" fill-rule="evenodd"/></g></g></g><g clip-path="url(#810e6c565f)"><g clip-path="url(#0a0c6e5cf7)"><g clip-path="url(#0c813fb30c)"><path fill="#0699dc" d="M 489.769531 18.777344 L 494.125 11.058594 L 497.523438 14.710938 C 499.789062 17.148438 504.089844 23.457031 510.421875 33.644531 C 516.753906 43.832031 520.746094 51.128906 522.398438 55.53125 C 524.050781 59.9375 526.496094 74.964844 529.738281 100.609375 C 532.976562 126.257812 534.046875 144.3125 532.945312 154.773438 C 531.84375 165.234375 529.90625 176.300781 527.132812 187.96875 L 522.96875 205.472656 L 521.160156 202.964844 C 519.953125 201.292969 516.542969 180.347656 510.929688 140.128906 L 502.511719 79.800781 L 501.367188 81.390625 C 500.605469 82.449219 501.738281 103.765625 504.765625 145.339844 C 507.796875 186.910156 508.886719 209.402344 508.039062 212.8125 C 507.191406 216.222656 505.371094 216.519531 502.574219 213.703125 C 499.777344 210.886719 495.066406 203.472656 488.4375 191.464844 C 481.808594 179.457031 477.667969 171.25 476.015625 166.847656 C 474.363281 162.441406 472.511719 151.058594 470.457031 132.695312 C 468.402344 114.335938 468.304688 99.394531 470.167969 87.871094 C 472.035156 76.351562 475.039062 63.242188 479.191406 48.542969 C 483.34375 33.847656 486.871094 23.925781 489.769531 18.777344 Z M 489.769531 18.777344 " fill-opacity="1" fill-rule="evenodd"/></g></g></g><g clip-path="url(#51686dc287)"><g clip-path="url(#9cfb09acd7)"><g clip-path="url(#ecc05c2b72)"><path fill="#0699dc" d="M 600.488281 225.105469 C 615.058594 222.734375 629.925781 222.179688 645.089844 223.453125 C 660.253906 224.722656 676.773438 228.578125 694.652344 235.015625 C 712.527344 241.453125 724.832031 246.695312 731.566406 250.738281 C 738.300781 254.785156 742.046875 257.679688 742.796875 259.425781 C 743.550781 261.171875 745.402344 262.507812 748.355469 263.429688 C 751.3125 264.351562 753.582031 265.382812 755.171875 266.527344 C 756.757812 267.667969 758.078125 270.027344 759.125 273.59375 L 760.699219 278.945312 L 746.003906 283.441406 C 736.210938 286.441406 718.488281 289.558594 692.839844 292.800781 C 667.191406 296.039062 648.605469 296.730469 637.085938 294.867188 C 625.5625 293 614.804688 290.078125 604.808594 286.097656 C 594.8125 282.117188 585.386719 277.339844 576.53125 271.773438 C 567.679688 266.203125 562.878906 262.542969 562.125 260.796875 L 560.996094 258.175781 L 583.632812 259.398438 C 598.722656 260.214844 613.394531 261.328125 627.648438 262.75 C 641.902344 264.167969 652.820312 265.195312 660.402344 265.828125 C 667.984375 266.464844 674.054688 266.410156 678.609375 265.671875 L 685.4375 264.558594 L 670.886719 261.316406 C 661.1875 259.15625 650.578125 257.148438 639.054688 255.28125 C 627.53125 253.417969 616.011719 251.554688 604.488281 249.691406 C 592.96875 247.828125 582.09375 245.625 571.863281 243.085938 C 561.632812 240.542969 556.710938 239.007812 557.089844 238.480469 C 557.472656 237.949219 561.15625 236.183594 568.144531 233.175781 C 575.136719 230.167969 585.914062 227.476562 600.488281 225.105469 Z M 600.488281 225.105469 " fill-opacity="1" fill-rule="evenodd"/></g></g></g><g clip-path="url(#e5cf61b47d)"><g clip-path="url(#b7336b90ae)"><g clip-path="url(#9a18f6bbde)"><path fill="#0699dc" d="M 693.699219 65.503906 C 705.386719 62.664062 722.238281 59.921875 744.242188 57.273438 C 766.246094 54.625 780.476562 53.011719 786.925781 52.429688 L 796.597656 51.554688 L 795.214844 55.988281 C 794.292969 58.941406 792.765625 62.460938 790.625 66.550781 C 788.484375 70.636719 786.347656 74.726562 784.207031 78.8125 C 782.070312 82.898438 777.683594 88.988281 771.054688 97.078125 C 764.425781 105.167969 758.675781 111.480469 753.804688 116.011719 C 748.933594 120.542969 744.898438 124.472656 741.699219 127.796875 C 738.503906 131.125 730.972656 136.554688 719.113281 144.09375 C 707.253906 151.636719 697.371094 156.984375 689.472656 160.136719 C 681.574219 163.292969 669.351562 165.75 652.8125 167.507812 C 636.269531 169.265625 626.140625 170.214844 622.421875 170.351562 L 616.847656 170.558594 L 616.402344 167.828125 C 616.105469 166.007812 618.503906 163.511719 623.597656 160.347656 C 628.691406 157.179688 635.496094 153.035156 644.011719 147.910156 C 652.523438 142.785156 664.460938 135.699219 679.8125 126.65625 C 695.167969 117.613281 708.320312 109.394531 719.273438 102.003906 L 735.695312 90.917969 L 727.722656 93.617188 C 722.40625 95.417969 701.660156 105.804688 665.488281 124.78125 C 629.3125 143.757812 609.894531 153.695312 607.238281 154.597656 C 604.578125 155.496094 603.679688 152.839844 604.539062 146.625 C 605.394531 140.40625 607.273438 134.726562 610.175781 129.578125 C 613.078125 124.433594 616.359375 118.757812 620.023438 112.550781 C 623.6875 106.347656 629.628906 99.769531 637.847656 92.824219 C 646.066406 85.878906 654.503906 80.296875 663.167969 76.082031 C 671.828125 71.867188 682.007812 68.339844 693.699219 65.503906 Z M 693.699219 65.503906 " fill-opacity="1" fill-rule="evenodd"/></g></g></g></svg>